<svg xmlns="http://www.w3.org/2000/svg" version="1.1" width="24px" height="24px" viewBox="0 0 90 90" style="shape-rendering:geometricPrecision; text-rendering:geometricPrecision; image-rendering:optimizeQuality; fill-rule:evenodd; clip-rule:evenodd" xmlns:xlink="http://www.w3.org/1999/xlink">
<g><path style="opacity:0.985" fill="#009fe9" d="M 5.5,-0.5 C 31.5,-0.5 57.5,-0.5 83.5,-0.5C 85.8333,1.16667 87.8333,3.16667 89.5,5.5C 89.5,16.1667 89.5,26.8333 89.5,37.5C 84.5,37.5 79.5,37.5 74.5,37.5C 74.8041,31.4229 74.3041,25.4229 73,19.5C 71.8333,18.3333 70.6667,17.1667 69.5,16C 54.2212,14.3982 38.8878,14.0648 23.5,15C 20.262,15.232 17.762,16.732 16,19.5C 14.8974,27.7745 14.3974,36.1079 14.5,44.5C 14.3974,52.8921 14.8974,61.2255 16,69.5C 17.762,72.268 20.262,73.768 23.5,74C 28.8229,74.4994 34.1563,74.666 39.5,74.5C 39.5,79.5 39.5,84.5 39.5,89.5C 28.1667,89.5 16.8333,89.5 5.5,89.5C 3.16667,87.8333 1.16667,85.8333 -0.5,83.5C -0.5,57.5 -0.5,31.5 -0.5,5.5C 1.16667,3.16667 3.16667,1.16667 5.5,-0.5 Z"/></g>
<g><path style="opacity:0.982" fill="#009fe9" d="M 89.5,50.5 C 89.5,61.5 89.5,72.5 89.5,83.5C 87.8333,85.8333 85.8333,87.8333 83.5,89.5C 73.5,89.5 63.5,89.5 53.5,89.5C 53.5,84.5 53.5,79.5 53.5,74.5C 71.6717,76.6493 78.6717,68.6493 74.5,50.5C 79.5,50.5 84.5,50.5 89.5,50.5 Z"/></g>
</svg>
